<?xml version="1.0" standalone="no"?>
<!DOCTYPE svg PUBLIC "-//W3C//DTD SVG 20010904//EN"
 "http://www.w3.org/TR/2001/REC-SVG-20010904/DTD/svg10.dtd">
<svg version="1.0" xmlns="http://www.w3.org/2000/svg"
 width="500.000000pt" height="500.000000pt" viewBox="0 0 500.000000 500.000000"
 preserveAspectRatio="xMidYMid meet">

<g transform="translate(0.000000,500.000000) scale(0.100000,-0.100000)"
fill="#000000" stroke="none">
<path d="M1020 2653 c-79 -214 -152 -410 -162 -436 l-18 -48 81 3 81 3 159
425 c87 234 159 428 159 433 0 4 -35 7 -78 7 l-77 0 -145 -387z"/>
<path d="M1440 2605 l0 -435 80 0 81 0 -3 340 c-2 186 0 336 4 332 4 -5 150
-472 204 -654 5 -15 18 -18 87 -18 l82 0 113 340 c63 187 115 340 116 340 1 0
1 -153 -2 -340 l-5 -340 87 0 86 0 0 435 0 435 -124 0 -123 0 -109 -330 c-59
-181 -111 -330 -114 -330 -3 0 -37 100 -74 223 -38 122 -84 270 -103 330 l-34
107 -124 0 -125 0 0 -435z"/>
<path d="M2590 2606 l0 -436 90 0 90 0 0 154 0 153 98 6 c115 7 175 26 230 73
60 51 86 113 87 204 0 97 -23 158 -78 205 -64 55 -116 67 -329 72 l-188 5 0
-436z m345 270 c45 -19 69 -58 69 -115 0 -87 -59 -131 -174 -131 l-60 0 0 130
0 130 65 0 c36 0 81 -6 100 -14z"/>
<path d="M4342 2859 l3 -72 198 -90 c108 -50 197 -94 197 -97 0 -3 -89 -42
-197 -86 l-198 -80 -3 -67 c-2 -37 1 -67 5 -67 4 0 137 57 296 126 l287 127 0
41 0 41 -295 148 -296 147 3 -71z"/>
<path d="M472 2777 l-282 -142 0 -41 0 -42 285 -126 c157 -69 290 -126 296
-126 6 0 9 27 7 66 l-3 66 -197 81 c-109 44 -198 83 -198 87 0 3 89 47 198 98
l197 91 3 66 c2 48 0 65 -10 64 -7 0 -140 -64 -296 -142z"/>
<path d="M3345 2325 c-19 -18 -25 -35 -25 -70 0 -65 31 -95 98 -95 76 0 112
47 98 125 -9 45 -39 65 -99 65 -38 0 -53 -5 -72 -25z"/>
<path d="M3694 2327 c-23 -20 -27 -32 -27 -72 0 -40 4 -52 27 -72 38 -32 105
-32 143 1 38 33 40 102 4 140 -34 36 -107 37 -147 3z"/>
<path d="M4042 2330 c-41 -38 -41 -103 0 -147 31 -33 110 -32 143 2 38 37 37
108 -1 143 -34 30 -111 31 -142 2z"/>
</g>
</svg>
