<?xml version="1.0" standalone="no"?>
<!DOCTYPE svg PUBLIC "-//W3C//DTD SVG 20010904//EN"
 "http://www.w3.org/TR/2001/REC-SVG-20010904/DTD/svg10.dtd">
<svg version="1.0" xmlns="http://www.w3.org/2000/svg"
 width="588.000000pt" height="585.000000pt" viewBox="0 0 588.000000 585.000000"
 preserveAspectRatio="xMidYMid meet">

<g transform="translate(0.000000,585.000000) scale(0.100000,-0.100000)"
fill="#ffffff" stroke="none">
<path d="M2770 5835 c-7 -8 -28 -15 -48 -15 -19 0 -89 -9 -156 -20 -576 -98
-1077 -350 -1490 -750 -392 -381 -642 -809 -776 -1330 -206 -804 -36 -1673
461 -2347 117 -158 304 -360 427 -461 36 -29 42 -40 42 -72 0 -75 71 -124 145
-100 48 16 75 53 75 104 0 76 -58 123 -136 111 l-43 -6 -164 163 c-322 321
-535 663 -669 1073 -243 746 -151 1578 248 2236 132 219 236 352 414 530 248
249 541 447 875 591 175 75 478 156 685 181 104 13 105 13 133 -10 78 -63 191
10 160 104 -9 27 -12 28 -90 31 -62 2 -83 -1 -93 -13z m-1374 -4929 c58 -49
20 -146 -56 -146 -37 0 -78 36 -86 76 -4 24 0 37 21 62 34 40 81 43 121 8z"/>
<path d="M2874 5666 c-18 -8 -36 -22 -42 -31 -7 -14 -40 -21 -152 -36 -1057
-134 -1932 -923 -2181 -1965 -25 -107 -37 -177 -65 -401 -3 -28 -12 -46 -25
-53 -24 -13 -49 -61 -49 -95 0 -92 116 -148 182 -88 56 51 59 115 7 169 l-30
31 16 129 c26 216 79 424 166 654 34 90 161 326 234 435 112 168 181 252 319
391 371 371 871 623 1387 698 141 21 175 20 206 -4 38 -30 103 -27 136 5 51
51 37 134 -27 160 -42 18 -43 18 -82 1z m-2346 -2516 c41 -38 40 -92 -1 -130
-51 -48 -137 -7 -137 65 0 72 86 113 138 65z"/>
<path d="M4217 5570 c-56 -44 -56 -136 0 -180 28 -22 91 -27 124 -10 16 9 36
0 114 -49 195 -123 413 -304 558 -463 73 -81 77 -88 77 -132 0 -80 67 -125
137 -92 39 19 64 67 56 109 -7 33 -56 77 -88 77 -16 0 -72 49 -196 173 -178
177 -321 294 -499 405 -83 52 -96 64 -103 96 -19 77 -119 114 -180 66z m112
-15 c50 -25 58 -96 16 -135 -74 -69 -187 26 -129 108 28 41 69 50 113 27z"/>
<path d="M2810 5400 c-557 -47 -1076 -293 -1482 -702 -92 -93 -144 -138 -158
-138 -36 0 -90 -31 -105 -61 -60 -116 89 -226 177 -131 31 33 39 63 28 103 -9
29 -4 36 108 150 368 380 805 602 1337 680 119 18 483 18 600 1 459 -69 863
-252 1193 -540 53 -47 62 -59 62 -88 0 -23 9 -44 29 -66 24 -27 36 -33 71 -33
35 0 47 6 71 33 32 36 36 69 14 112 -18 35 -43 50 -85 50 -25 0 -52 17 -128
81 -417 348 -924 541 -1461 553 -97 2 -219 1 -271 -4z m-1589 -899 c32 -33 36
-58 14 -100 -24 -47 -83 -56 -129 -20 -20 16 -26 29 -26 60 0 83 83 118 141
60z"/>
<path d="M2045 5023 c-30 -8 -53 -32 -65 -67 -8 -24 -26 -41 -78 -71 -118 -70
-300 -213 -410 -323 -351 -352 -562 -789 -622 -1286 -15 -127 -13 -392 5 -525
63 -474 278 -907 619 -1246 258 -256 558 -436 905 -541 124 -38 372 -84 450
-84 40 0 49 -4 58 -23 6 -13 28 -32 49 -42 34 -16 42 -16 78 -4 53 19 79 56
78 110 -1 37 -6 49 -38 78 -33 30 -41 33 -82 28 -34 -4 -53 -12 -72 -34 -25
-27 -27 -28 -97 -22 -324 29 -664 149 -935 328 -131 86 -191 135 -302 241
-444 426 -677 1024 -635 1632 34 505 231 946 583 1306 171 175 457 383 497
361 49 -26 111 0 135 57 12 29 12 39 1 67 -8 17 -21 38 -29 44 -18 15 -65 23
-93 16z m1000 -4029 c19 -8 45 -55 45 -84 0 -33 -53 -80 -90 -80 -73 0 -109
92 -57 148 20 22 66 29 102 16z"/>
<path d="M2765 4965 c-329 -47 -627 -166 -895 -359 -99 -71 -278 -240 -361
-342 -385 -471 -528 -1104 -383 -1694 15 -58 37 -134 51 -170 23 -62 23 -66 7
-102 -22 -48 -12 -96 25 -133 82 -77 214 8 181 117 -11 40 -57 78 -92 78 -29
0 -96 233 -122 428 -91 659 194 1336 729 1732 268 198 550 313 871 355 186 24
411 18 582 -16 42 -8 55 -16 62 -35 12 -31 72 -57 110 -49 61 13 93 80 65 138
-25 54 -96 75 -143 41 -20 -14 -31 -14 -120 1 -134 23 -438 28 -567 10z
m-1420 -2660 c41 -40 31 -103 -19 -130 -86 -46 -166 52 -105 129 28 36 89 37
124 1z"/>
<path d="M2874 4811 c-12 -5 -29 -19 -37 -31 -12 -17 -36 -26 -119 -40 -363
-64 -685 -235 -939 -496 -293 -303 -452 -655 -489 -1081 -33 -382 82 -803 307
-1123 101 -143 311 -349 453 -443 433 -286 956 -370 1440 -230 233 67 473 195
644 344 36 31 46 35 83 31 38 -4 47 0 78 31 30 30 35 42 35 82 0 39 -5 52 -30
75 -37 35 -73 44 -116 30 -46 -15 -74 -58 -75 -112 0 -40 -4 -46 -57 -89 -406
-329 -933 -445 -1442 -318 -322 81 -635 278 -848 533 -316 380 -446 853 -366
1331 115 682 647 1223 1322 1344 l106 19 29 -24 c53 -45 125 -25 153 42 12 29
12 39 1 67 -8 17 -21 38 -30 45 -20 17 -77 24 -103 13z m1402 -2895 c59 -50
22 -146 -56 -146 -78 0 -115 96 -56 146 15 13 40 24 56 24 16 0 41 -11 56 -24z"/>
<path d="M470 4713 c-48 -18 -79 -78 -62 -123 7 -19 -6 -51 -69 -174 -153
-297 -243 -569 -299 -898 -81 -483 -35 -1013 129 -1477 36 -103 39 -116 25
-135 -7 -11 -14 -38 -14 -59 0 -31 7 -46 34 -73 29 -29 41 -34 79 -34 37 0 51
5 76 31 26 25 31 38 31 77 -1 56 -17 80 -72 107 -36 18 -44 28 -65 85 -99 263
-159 582 -170 895 -5 158 6 400 23 501 60 359 142 624 277 892 92 182 98 192
125 192 37 0 82 52 82 95 0 47 -13 71 -50 90 -30 15 -53 18 -80 8z m-133
-2792 c85 -53 23 -183 -72 -151 -41 13 -55 35 -55 82 0 37 13 59 45 76 29 16
46 14 82 -7z"/>
<path d="M4410 3001 c-50 -49 -52 -104 -6 -158 l25 -30 -15 -74 c-37 -177
-126 -380 -236 -533 -105 -149 -270 -304 -419 -394 -31 -19 -42 -20 -65 -12
-39 15 -79 3 -109 -32 -29 -34 -32 -66 -10 -108 19 -36 43 -50 88 -50 43 0 83
31 92 70 5 21 20 38 58 61 237 146 454 390 576 650 51 108 104 268 116 353 6
37 16 56 46 86 61 60 64 117 9 171 -23 24 -37 29 -75 29 -38 0 -52 -5 -75 -29z
m138 -27 c44 -49 14 -127 -55 -140 -27 -5 -37 -1 -63 24 -34 35 -39 74 -14
110 33 48 92 50 132 6z"/>
<path d="M5694 2996 c-26 -26 -34 -42 -34 -71 0 -42 14 -73 42 -95 19 -16 19
-19 3 -140 -79 -607 -343 -1147 -770 -1574 -234 -234 -537 -441 -832 -568 -69
-31 -82 -33 -98 -22 -56 41 -145 -9 -145 -81 0 -47 14 -71 52 -91 54 -28 110
-5 142 58 7 12 50 39 111 67 730 336 1266 934 1514 1688 56 171 93 346 126
596 5 34 13 52 29 62 63 42 61 150 -4 188 -47 28 -97 22 -136 -17z m110 0 c46
-19 65 -66 43 -110 -21 -44 -66 -63 -108 -46 -18 8 -37 27 -46 46 -21 43 -3
91 41 110 38 16 31 16 70 0z"/>
<path d="M1487 2960 c-35 -27 -45 -81 -24 -125 9 -18 24 -36 34 -39 14 -5 25
-35 47 -127 33 -136 101 -302 172 -420 140 -231 373 -448 609 -567 70 -34 83
-45 98 -81 49 -109 201 -87 214 30 5 43 2 50 -29 84 -29 32 -41 38 -76 38 -23
0 -52 -7 -65 -16 -22 -14 -28 -13 -105 27 -188 95 -387 268 -510 441 -106 149
-194 347 -235 531 -13 59 -13 62 10 88 13 15 23 38 23 52 0 33 -25 81 -49 94
-32 16 -86 12 -114 -10z m1082 -1245 c66 -34 52 -132 -22 -158 -10 -4 -33 0
-52 7 -62 26 -74 89 -26 137 33 32 58 36 100 14z"/>
<path d="M5374 2306 c-17 -8 -39 -24 -48 -37 -20 -29 -21 -98 -1 -126 14 -20
13 -27 -5 -74 -38 -94 -148 -303 -212 -400 -104 -157 -223 -301 -352 -426
-634 -615 -1521 -847 -2382 -624 -317 83 -664 260 -934 478 -170 136 -371 355
-487 529 -32 47 -39 64 -31 78 14 25 1 79 -25 103 -69 64 -167 18 -167 -77 0
-39 47 -90 83 -90 19 0 34 -15 70 -69 127 -191 370 -447 564 -594 350 -265
757 -439 1173 -501 309 -47 670 -35 955 30 663 152 1225 540 1600 1104 65 96
245 439 245 464 0 7 16 18 35 25 48 17 75 55 75 105 0 50 -21 83 -66 102 -41
17 -50 17 -90 0z m102 -40 c58 -49 20 -146 -57 -146 -21 0 -40 10 -61 30 -25
26 -29 36 -24 63 13 70 90 98 142 53z"/>
<path d="M5305 1301 c-48 -20 -79 -82 -65 -131 9 -31 6 -35 -133 -177 -499
-510 -1120 -808 -1820 -874 -165 -15 -544 -6 -687 16 -536 83 -995 283 -1407
612 -86 68 -93 76 -93 109 0 64 -70 109 -131 84 -41 -17 -59 -47 -59 -96 0
-55 42 -94 99 -94 32 0 52 -11 129 -74 428 -348 986 -578 1549 -640 249 -28
622 -17 833 24 30 6 71 13 90 16 77 12 302 74 425 118 166 60 459 204 597 295
226 147 423 311 588 490 77 82 100 101 123 101 114 0 161 151 65 210 -34 21
-69 24 -103 11z m99 -43 c56 -51 21 -148 -54 -148 -37 0 -90 47 -90 80 0 77
88 118 144 68z"/>
</g>
</svg>
