<svg xmlns="http://www.w3.org/2000/svg" xml:space="preserve" viewBox="0 0 336 339"><path d="M1 124V1h336v339H1V124m15.47 17.072c-.1.301-.202.602-.44 1.574.046.452.092.903-.002 2.152-.288 2.067-.575 4.134-1.002 7.043-.047 1.706-.094 3.412-.84 5.599-1.06 13.623-2.389 27.232-3.085 40.873-.484 9.475-.109 18.994-.096 28.493.006 4.102 3.191 8.191 6.25 8.09 3.608-.12 6.225-3.533 6.799-7.762 1.931-14.237 3.068-28.69 6.412-42.602 5.75-23.917 14.296-46.959 26.877-68.281 12.126-20.554 26.43-39.02 48.228-50.4 8.681-4.532 17.858-7.11 27.506-7.788 14.508-1.02 28.07 3.071 41.212 8.715 3.354 1.44 6.013.773 8.164-1.827 2.149-2.596 2.205-5.624-.16-8.036-4.625-4.72-9.514-9.18-14.91-14.045-4.46-3.344-8.921-6.688-13.388-10.498.027-.32-.034-.62-.605-1.425-1.115-.687-2.231-1.375-3.6-2.617-.581-.148-1.164-.295-2.048-1.088-12.84-8.316-26.138-15.516-42.647-17.214-5.722.507-11.636.26-17.13 1.663C72 15.768 60.295 25.995 50.972 39.198c-12.003 16.996-19.26 36.171-24.797 55.98-3.007 10.753-4.715 21.87-7.174 33.625-.612 3.724-1.223 7.448-1.988 11.642 0 0-.098.485-.039.506 0 0-.016-.06-.503.121M87.073 333.53c.3.101.602.202 1.754.444 3.386.286 6.772.573 11.08 1 4.364-.048 8.729-.095 13.904-.003 3.396-.046 6.792-.092 11.017-.028 1.75-.314 3.5-.627 5.249-.944 3.974-.72 7.948-1.443 12.75-2.026 4.391-1.046 8.782-2.092 13.985-3 8.078-2.29 16.157-4.578 25.027-6.96 10.377-3.67 20.908-6.962 31.092-11.105 12.479-5.076 24.823-10.545 36.933-16.444 9.63-4.692 18.957-10.063 28.087-15.674 1.76-1.08 2.895-4.787 2.605-7.063-.215-1.682-3.04-3.835-5.024-4.256-1.886-.4-4.202 1.146-6.31 1.89-12.849 4.541-25.454 10.03-38.601 13.405-15.25 3.915-30.976 5.978-47.118 9.17a40.155 40.155 0 0 1-4.423.09c-3.493 0-7.104-.576-10.458.106-12.1 2.46-23.91-.37-35.71-1.839-12.087-1.504-23.579-5.461-34.474-11.212-9.61-5.073-17.733-11.762-24.423-20.191-8.394-10.575-12.196-23.148-14.927-36.09-.912-4.325-1.349-8.749-2.094-13.731-6.08-4.051-9.617-2.87-12.017 4.839-1.25 4.017-2.637 8.026-3.45 12.14-1.639 8.275-2.927 16.62-4.512 25.64a107.312 107.312 0 0 0-.988 4.138 59.941 59.941 0 0 1 0 5.08c.046 3.365.093 6.73 0 10.974.046 2.373.093 4.746.028 7.938 1.28 5.077 2.559 10.154 3.93 15.951.657 1.447 1.313 2.895 2.027 5.067.992 2.024 1.688 4.276 3.04 6.02 2.443 3.153 5.278 6.002 8.585 9.34 1.28 1.54 2.562 3.082 3.862 4.628 0 0 .014.014.357.457.715.518 1.43 1.036 2.782 1.866 3.86 2.14 7.72 4.281 11.944 6.755 0 0 .488-.08 1.092.08 4.424 1.039 8.847 2.077 13.284 3.05 0 0-.065.01.115.498m186.896-170.486s-.065.012.015.864c.729 3.698 1.457 7.395 2.043 12.02-.048 5.677-.096 11.354-.71 17.414.068.886.328 1.809.17 2.653-.808 4.332-1.723 8.644-3.076 13.123-.081.294-.162.588-.557 1.528-.965 2.079-1.93 4.158-3.38 6.423-.103.302-.205.604-.46 1.618-1.376 2.424-2.752 4.847-4.682 7.522-.148.583-.295 1.165-1.05 2.012-1.13 1.577-2.26 3.153-4.095 4.791-2.218 2.043-4.347 4.193-6.673 6.105-5.158 4.24-10.622 8.14-15.495 12.679-1.309 1.22-1.819 4.613-1.092 6.33.733 1.73 3.61 3.854 5.285 3.651 6.005-.728 11.898-2.369 18.633-3.76 1.402-.34 2.822-.62 4.204-1.028 12.685-3.751 25.118-8.115 36.701-15.232 0 0 .085-.263.64-.632 3.693-1.668 7.603-3.088 8.755-7.66 5.56.349 7.369-4.642 10.372-7.644 6.724-6.72 10.812-15.12 12.388-24.417 1.966-11.597 1.38-23.004-2.691-34.379-4.321-12.07-9.493-23.46-18.204-33.808-.11-.643-.002-1.468-.363-1.902-7.245-8.699-15.217-16.885-21.642-26.146-6.462-9.313-17.359-13.777-23.386-23.267-.08-.126-.294-.158-.42-.264-8.771-7.414-17.363-15.057-26.368-22.176-6.995-5.53-14.506-10.407-22.064-16.196-4.553-3.105-9.107-6.21-13.93-9.885-.598-.165-1.196-.33-2.118-1.104-3.395-2.076-6.602-4.632-10.252-6.052-2.307-.898-5.274-.101-8.224.031 0 0-.088.282-.64.697-3.028 4.552-.982 8.824 5.369 11.078 0 0-.067.03.168.6.914.803 1.829 1.606 3.036 3.038 12.666 12.619 25.98 24.666 37.793 38.038 9.354 10.587 16.867 22.8 25.272 34.987 2.91 5.383 5.764 10.8 8.775 16.126.708 1.252 1.947 2.204 2.978 4.105 2.297 7.04 4.594 14.078 6.988 21.83.395 1.081.79 2.163 1.05 3.911.045.449.09.897.084 1.869.282.192.564.383.853.509z"/><path fill="#F07C01" d="M148.044 27.887c.582.148 1.165.295 1.938 1.102 1.404 1.265 2.616 1.872 3.829 2.479.15.283.211.584.19 1.532.587 2.417 1.48 5.802 1.707 5.758 4.7-.913 6.25 3.043 8.73 5.404 1.944 1.851 3.071 1.839 3.562-.995 4.78 4.568 9.668 9.029 14.293 13.748 2.365 2.412 2.309 5.44.16 8.036-2.151 2.6-4.81 3.267-8.164 1.827-13.143-5.644-26.704-9.734-41.212-8.715-9.648.678-18.825 3.256-27.506 7.788-21.798 11.38-36.102 29.846-48.228 50.4-12.58 21.322-21.128 44.364-26.877 68.281-3.344 13.913-4.48 28.365-6.412 42.602-.574 4.23-3.19 7.642-6.799 7.762-3.059.101-6.244-3.988-6.25-8.09-.013-9.499-.388-19.018.096-28.493.696-13.641 2.025-27.25 3.746-41.26 2.789-2.412 2.633-4.298.32-6.054.286-2.067.573-4.134 1.248-6.612 1.167-.857 1.947-1.303 2.726-1.75l-2.226-1.707s.098-.485.436-.943c1.106-2.07 2.169-3.611 2.572-5.31.529-2.224 3.357-4.922-.757-6.678 2.294-10.952 4.002-22.068 7.009-32.82 5.538-19.81 12.794-38.985 24.797-55.981 9.323-13.203 21.027-23.43 36.993-27.507 5.494-1.402 11.408-1.156 17.721-1.293 4.204 2.11 7.704 4.987 11.452 5.36 8.528.845 15.092 4.697 20.87 10.532 2.962 2.99 6.144 4.496 10.036 1.597zm36.082 263.724c15.519-2.867 31.244-4.93 46.495-8.845 13.147-3.375 25.752-8.864 38.602-13.404 2.107-.745 4.423-2.29 6.309-1.89 1.984.42 4.809 2.573 5.024 4.255.29 2.276-.845 5.982-2.605 7.063-9.13 5.61-18.457 10.982-28.087 15.674-12.11 5.9-24.454 11.368-36.933 16.444-10.184 4.143-20.715 7.435-31.807 10.946-1.668-.323-2.646-.719-3.568-.615-5.278.592-10.582 1.088-15.795 2.058-2.852.53-5.87 1.595-5.762 5.537-4.39 1.047-8.78 2.093-13.74 2.795-4.89-.765-9.207-1.265-13.537-1.578-3.305-.24-4.854 1.503-4.722 4.782-3.397.046-6.793.092-10.72-.266-4.526-1.317-8.502-2.332-12.538-2.98-.402-.064-1.163 2.111-1.758 3.246-3.385-.286-6.771-.573-10.752-1.076-.829-.404-1.077-.57-1.339-.715 0 0 .065-.01-.04-.33-3.21-3.474-9.662-4.686-13.783-2.89 0 0-.488.08-.54-.525-.358-1.637-.516-3.493-.99-3.577-5.655-1.004-7.062-6.474-10.271-9.748.75-.363 1.232-.7 1.714-1.035-.106-.118-.299-.344-.306-.338-.568.455-1.122.929-2.066 1.487-1.303 1.635-2.217 3.185-3.131 4.734-1.281-1.542-2.562-3.083-4.162-5.235-1.478-3.261 2.558-9.08-4.877-8.155-.766-2.309-1.569-4.834-2.443-7.334-1.338-3.825-2.704-2.503-4.044.015-.656-1.447-1.312-2.895-1.81-5.022.183-4.693.547-8.75.037-12.694-.166-1.284-2.612-2.272-4.015-3.396-.046-2.373-.093-4.746.22-7.729 1.259-2.317 2.347-3.955 3.011-5.75 1.109-2.994.358-5.15-3.23-5.52-.046-1.392-.093-2.783.27-4.603 1.266-1.45 2.12-2.47 2.975-3.49l-2.245-.923c1.433-8.316 2.721-16.66 4.36-24.936.813-4.114 2.2-8.123 3.45-12.14 2.4-7.708 5.938-8.89 12.017-4.84.745 4.983 1.182 9.407 2.094 13.732 2.73 12.942 6.533 25.515 14.927 36.09 6.69 8.43 14.814 15.118 24.423 20.19 10.895 5.752 22.387 9.709 34.474 11.213 11.8 1.47 23.61 4.3 35.71 1.839 3.354-.682 6.965-.105 11.018.285a158.989 158.989 0 0 0 4.957 2.781l-.471-3.587m-128.86 14.316-.428.3c.14-.029.279-.057.427-.3m-17.762-48.402s-.013-.038 0 0z"/><path fill="#F07C01" d="M258.046 258.112c-5.936 1.296-11.83 2.937-17.834 3.665-1.676.203-4.552-1.92-5.285-3.651-.727-1.717-.217-5.11 1.092-6.33 4.873-4.54 10.337-8.438 15.495-12.679 2.326-1.912 4.455-4.062 7.284-5.96 1.49.77 2.369 1.393 4.522 2.92l-.431-8.12c.148-.583.295-1.165 1.095-1.896 5.892-1.603 10.606-10.254 8.987-15.507-.075-.244-.527-.372-.803-.554.08-.294.162-.588.823-1.023 1.788-.607 2.995-1.073 3.07-1.101.745-3.89 1.654-6.834 1.746-9.805.052-1.682-1.238-3.406-1.924-5.11.048-5.679.096-11.356.503-17.666 4.54-5.757.791-8.94-2.482-12.24 0 0 .065-.011-.055-.172a7.506 7.506 0 0 0-.682-.871c-.045-.449-.09-.897.176-1.809-.279-1.695-.869-2.928-1.458-4.16-2.297-7.04-4.594-14.079-6.904-21.931-1.922-5.284-3.506-9.936-5.866-14.155-1.318-2.358-3.923-3.996-5.948-5.958-8.33-11.492-15.844-23.705-25.198-34.292-11.813-13.372-25.127-25.42-37.659-38.483 1.518-4.689-1.957-2.606-3.405-3.163 0 0 .067-.03.03-.377-1.617-3.946-3.199-7.546-4.78-11.146 0 0 .088-.282.617-.17 2.628 1.371 4.881 2.433 6.792 3.932 3.474 2.726 7.08 4.254 11.48 2.588.597.164 1.195.328 1.74 1.057-.105 1.341-.43 2.686-.168 2.813 4.833 2.33 7.999 8.08 14.428 7.13 7.281 5.167 14.792 10.044 21.787 15.574 9.005 7.12 17.597 14.762 26.369 22.176.125.106.339.138.419.264 6.027 9.49 16.924 13.954 23.386 23.267 6.425 9.26 14.397 17.447 21.642 26.146.361.434.253 1.259.169 2.444-.467.945-1.068 1.498-.963 1.727 1.79 3.9 3.495 7.854 5.567 11.604 2.821 5.103 6.327 9.665 8.48 15.335 2.95 7.769 5.86 15.43 6.59 23.703.241 2.724-.933 5.544-1.154 8.344-.219 2.756.8 5.914-.215 8.245-2.65 6.083-5.604 12.177-9.44 17.55-2.573 3.605-6.966 5.868-10.35 8.946-3.867 3.517-9.623 5.653-9.496 12.281 0 0-.085.263-.608.163-4.126 1.304-7.679 2.854-11.34 4.079-9.18 3.071-18.435 5.92-27.582 9.085-1.012.35-1.518 2.159-2.26 3.291z"/><path fill="#EF7C03" d="M300.113 241.31c-.405-6.444 5.35-8.58 9.218-12.097 3.384-3.078 7.777-5.341 10.35-8.946 3.836-5.373 6.79-11.467 9.44-17.55 1.015-2.331-.004-5.489.215-8.245.221-2.8 1.395-5.62 1.155-8.344-.731-8.272-3.64-15.934-6.59-23.703-2.154-5.67-5.66-10.232-8.48-15.335-2.073-3.75-3.778-7.705-5.568-11.604-.105-.23.496-.782 1.005-1.358 8.863 9.437 14.035 20.826 18.356 32.897 4.072 11.375 4.657 22.782 2.691 34.38-1.576 9.297-5.664 17.697-12.388 24.416-3.003 3.002-4.812 7.993-10.372 7.644-1.152 4.572-5.062 5.992-9.032 7.845z"/><path fill="#EF7D03" d="M147.893 27.565c-3.74 3.221-6.923 1.716-9.885-1.275-5.778-5.835-12.342-9.687-20.87-10.533-3.748-.372-7.248-3.25-11-5.289 15.466 1.258 28.764 8.458 41.755 17.097z"/><path fill="#EF7C03" d="M258.445 258.064c.342-1.084.848-2.893 1.86-3.243 9.147-3.164 18.402-6.014 27.581-9.085 3.662-1.225 7.215-2.775 11.21-4.038-10.929 7.176-23.362 11.54-36.047 15.29-1.382.41-2.802.689-4.604 1.076z"/><path fill="#EF7D03" d="M156.405 328.903c-.514-4.01 2.504-5.076 5.356-5.606 5.213-.97 10.517-1.466 15.795-2.058.922-.104 1.9.292 3.172.662-7.759 2.494-15.838 4.783-24.323 7.002z"/><path fill="#EF7C03" d="M41.983 300.474c1.311-2.88 2.677-4.203 4.015-.378.874 2.5 1.677 5.025 2.443 7.334 7.435-.925 3.399 4.894 4.56 7.974-2.671-2.546-5.506-5.395-7.949-8.548-1.352-1.744-2.048-3.996-3.069-6.382zm15.507 20.348c.904-1.551 1.818-3.1 3.121-4.736l.39-.086c3.477 3.246 4.884 8.716 10.54 9.72.473.084.631 1.94.806 3.41-3.99-1.702-7.85-3.842-12.09-6.454-1.169-.927-1.957-1.383-2.744-1.838 0 0-.014-.014-.024-.016zm143.391-288.24c-4.237 1.972-7.843.444-11.317-2.282-1.91-1.499-4.164-2.56-6.652-3.98 2.281-.196 5.248-.993 7.555-.095 3.65 1.42 6.857 3.976 10.414 6.357z"/><path fill="#EF7D03" d="M124.414 334.888c-.546-3.334 1.003-5.076 4.308-4.837a160.4 160.4 0 0 1 13.123 1.508c-3.82.997-7.794 1.72-11.768 2.44-1.75.317-3.5.63-5.663.89zm43.277-291.87c-.182 2.983-1.31 2.995-3.253 1.144-2.48-2.361-4.03-6.317-8.73-5.404-.227.044-1.12-3.34-1.705-5.524 4.459 2.948 8.92 6.292 13.688 9.784z"/><path fill="#EE7D04" d="M253.204 114.346c1.988 1.615 4.593 3.253 5.911 5.61 2.36 4.22 3.944 8.872 5.848 13.75-1-.682-2.24-1.634-2.947-2.886-3.01-5.327-5.864-10.743-8.812-16.474z"/><path fill="#EF7C03" d="M272.01 210.323c.434-.14.886-.013.961.231 1.619 5.253-3.095 13.904-8.71 15.381 1.001-2.4 2.377-4.824 3.976-7.775.41-.765.576-1.015.723-1.277.965-2.08 1.93-4.158 3.05-6.56zM216.905 43.577c-6.29 1.26-9.456-4.489-14.289-6.82-.262-.126.063-1.47.303-2.527 4.741 2.826 9.295 5.931 13.986 9.347z"/><path fill="#EF7D03" d="M99.445 334.904c.134-1.206.895-3.38 1.297-3.316 4.036.647 8.012 1.662 12.132 2.908-4.238.383-8.603.43-13.429.408z"/><path fill="#EF7C03" d="M275.6 193.151c.969 1.514 2.259 3.238 2.207 4.92-.092 2.97-1 5.916-1.747 9.805-.074.028-1.281.494-2.83 1.02.534-4.257 1.45-8.569 2.257-12.901.158-.844-.102-1.767.113-2.844zM36.11 279.409c1.46.714 3.905 1.702 4.07 2.986.51 3.944.147 8-.082 12.334-1.484-4.757-2.764-9.834-3.988-15.32zM181.88 26.746c1.856 3.392 3.438 6.992 5.04 10.972-6.299-1.94-8.345-6.213-5.04-10.972z"/><path fill="#EE7D03" d="M273.944 163.482c3.233 2.873 6.982 6.056 2.514 11.35-1.017-3.529-1.745-7.226-2.514-11.35z"/><path fill="#EF7C03" d="M73.372 329.902c3.82-1.876 10.27-.664 13.473 2.842-4.324-.685-8.747-1.723-13.473-2.842zm-37.275-69.449c3.658-.084 4.409 2.073 3.3 5.068-.664 1.794-1.752 3.432-2.94 5.31-.337-3.195-.384-6.56-.36-10.378zM19.083 128.401c4.197 1.354 1.369 4.052.84 6.276-.403 1.699-1.466 3.24-2.496 5.075.35-3.501.962-7.225 1.656-11.351zm243.502 99.688c.425 2.151.546 4.435.735 7.989-2.153-1.528-3.032-2.152-4.17-2.951.872-1.753 2.002-3.33 3.435-5.038z"/><path fill="#EF7D02" d="M183.814 291.773c.469 1.034.626 2.23.783 3.425-1.466-.796-2.932-1.593-4.498-2.71 1.068-.399 2.236-.475 3.715-.715z"/><path fill="#EF7C03" d="M37.09 251.336c.826-.044 1.574.264 2.322.572-.854 1.02-1.709 2.04-2.904 3.076-.058-1.088.224-2.192.583-3.648zM15.096 151.42c2.384 1.335 2.54 3.22.101 5.392-.265-1.56-.218-3.265-.101-5.392zM187.023 38.346c1.33.272 4.805-1.81 3.14 2.563-1.194-.672-2.109-1.475-3.14-2.563zM16.945 140.94a261.02 261.02 0 0 0 2.196 1.697c-.78.447-1.559.893-2.656 1.352-.363-.44-.409-.891-.24-1.848.4-.741.566-.99.713-1.25 0 0 .016.06-.013.05z"/><path fill="#EE7D03" d="M271.933 156.399a12.83 12.83 0 0 1 1.477 3.471c-.638-.952-1.033-2.034-1.477-3.471z"/><path fill="#EF7D03" d="M153.6 31.207c-1.002-.346-2.214-.953-3.492-1.941 1.05.306 2.167.994 3.493 1.941z"/><path fill="#F07C01" d="M57.684 321.06c.616.233 1.404.689 2.254 1.46-.652-.203-1.367-.721-2.254-1.46z"/><path fill="#EE7D03" d="M273.142 162.273c.232-.04.418.197.703.643-.165.002-.447-.19-.703-.643z"/><path fill="#F07C01" d="M16.714 140.981c.097.17-.07.419-.4.824-.046-.13.055-.432.4-.824zm252.003 75.995c.096.17-.07.42-.404.828-.044-.13.058-.433.404-.828z"/><path fill="#EF7C03" d="M86.983 333.286c.172-.099.42.067.824.4-.132.046-.433-.055-.824-.4zM61 316c.555-.472 1.109-.946 1.677-1.401.007-.006.2.22.306.338-.482.336-.964.672-1.714 1.035l-.27.028zm-5.74-9.966c-.143.136-.282.164-.422.192.143-.1.285-.2.423-.192zm-17.764-48.528c-.006-.019.007.019 0 0z"/></svg>